HIERARCHY
ROOT hips
{
  OFFSET 0 10.432787522119774 1.3615615910897314
  CHANNELS 6 Xposition Yposition Zposition Yrotation Xrotation Zrotation
  JOINT spine
  {
    OFFSET -7.042016674e-31 0.605849736412771 0
    CHANNELS 3 Yrotation Xrotation Zrotation
    JOINT chest
    {
      OFFSET 0 1.2699780403367527 0
      CHANNELS 3 Yrotation Xrotation Zrotation
      JOINT upperChest
      {
        OFFSET 0 1.217802795781373 0
        CHANNELS 3 Yrotation Xrotation Zrotation
        JOINT neck
        {
          OFFSET 0 1.524881793055447 0
          CHANNELS 3 Yrotation Xrotation Zrotation
          JOINT head
          {
            OFFSET 0 0.8197776686196176 0
            CHANNELS 3 Yrotation Xrotation Zrotation
            JOINT leftEye
            {
              OFFSET 0.27991711184325396 0.7377279215890094 0.1770057770610815
              CHANNELS 3 Yrotation Xrotation Zrotation
              End Site
              {
                OFFSET 0.27991711184325396 0.7377279215890094 0.1770057770610815
              }
            }
            JOINT rightEye
            {
              OFFSET -0.27991715118228666 0.7377278742074458 0.1770060973723161
              CHANNELS 3 Yrotation Xrotation Zrotation
              End Site
              {
                OFFSET -0.27991715118228666 0.7377278742074458 0.1770060973723161
              }
            }
          }
        }
        JOINT leftShoulder
        {
          OFFSET 0.4148696499235711 1.1670497283493415 0
          CHANNELS 3 Yrotation Xrotation Zrotation
          JOINT leftUpperArm
          {
            OFFSET 0.9737923520503171 0 0
            CHANNELS 3 Yrotation Xrotation Zrotation
            JOINT leftLowerArm
            {
              OFFSET 2.526933563002016 0 0
              CHANNELS 3 Yrotation Xrotation Zrotation
              JOINT leftHand
              {
                OFFSET 2.4263767061081287 0 0
                CHANNELS 3 Yrotation Xrotation Zrotation
                JOINT leftIndexProximal
                {
                  OFFSET 0.7243194303238094 0.08170604153373495 0.2036005707489045
                  CHANNELS 3 Yrotation Xrotation Zrotation
                  JOINT leftIndexIntermediate
                  {
                    OFFSET 0.365490110639793 -0.010566615565509085 -0.014147873305413783
                    CHANNELS 3 Yrotation Xrotation Zrotation
                    JOINT leftIndexDistal
                    {
                      OFFSET 0.22502693978020916 -0.007863122621388996 -0.007567729919505994
                      CHANNELS 3 Yrotation Xrotation Zrotation
                      End Site
                      {
                        OFFSET 0.22502693978020916 -0.007863122621388996 -0.007567729919505994
                      }
                    }
                  }
                }
                JOINT leftLittleProximal
                {
                  OFFSET 0.6720313867214986 0.0817059792423902 -0.3230034999786495
                  CHANNELS 3 Yrotation Xrotation Zrotation
                  JOINT leftLittleIntermediate
                  {
                    OFFSET 0.3458364459000005 5.4765410650858826e-8 2.495506794542024e-7
                    CHANNELS 3 Yrotation Xrotation Zrotation
                    JOINT leftLittleDistal
                    {
                      OFFSET 0.19925722030351722 0.003096736260194355 0.0038306323169590983
                      CHANNELS 3 Yrotation Xrotation Zrotation
                      End Site
                      {
                        OFFSET 0.19925722030351722 0.003096736260194355 0.0038306323169590983
                      }
                    }
                  }
                }
                JOINT leftMiddleProximal
                {
                  OFFSET 0.7300446999180792 0.08170730820222194 0.0226618663244387
                  CHANNELS 3 Yrotation Xrotation Zrotation
                  JOINT leftMiddleIntermediate
                  {
                    OFFSET 0.40758107610000327 -0.0000012383582372876845 3.721937498757377e-7
                    CHANNELS 3 Yrotation Xrotation Zrotation
                    JOINT leftMiddleDistal
                    {
                      OFFSET 0.2514495697999991 7.561061998728746e-8 -1.6055895105115958e-7
                      CHANNELS 3 Yrotation Xrotation Zrotation
                      End Site
                      {
                        OFFSET 0.2514495697999991 7.561061998728746e-8 -1.6055895105115958e-7
                      }
                    }
                  }
                }
                JOINT leftRingProximal
                {
                  OFFSET 0.7217264995692599 0.08170598771388815 -0.1504338786787948
                  CHANNELS 3 Yrotation Xrotation Zrotation
                  JOINT leftRingIntermediate
                  {
                    OFFSET 0.3780872700000014 6.409956210262635e-8 3.723059401883333e-7
                    CHANNELS 3 Yrotation Xrotation Zrotation
                    JOINT leftRingDistal
                    {
                      OFFSET 0.21812031524459563 -0.00271347557699686 -0.004991351593452126
                      CHANNELS 3 Yrotation Xrotation Zrotation
                      End Site
                      {
                        OFFSET 0.21812031524459563 -0.00271347557699686 -0.004991351593452126
                      }
                    }
                  }
                }
                JOINT leftThumbProximal
                {
                  OFFSET 0.10793670302222891 -0.165278914300383 -0.07775358168875651
                  CHANNELS 3 Yrotation Xrotation Zrotation
                  JOINT leftThumbIntermediate
                  {
                    OFFSET 0.40355763830204994 -0.017484092948475194 0.31777731504028983
                    CHANNELS 3 Yrotation Xrotation Zrotation
                    JOINT leftThumbDistal
                    {
                      OFFSET 0.2318770514136803 -0.018507879151339335 0.21396002480314588
                      CHANNELS 3 Yrotation Xrotation Zrotation
                      End Site
                      {
                        OFFSET 0.2318770514136803 -0.018507879151339335 0.21396002480314588
                      }
                    }
                  }
                }
              }
            }
          }
        }
        JOINT rightShoulder
        {
          OFFSET -0.4148696499235712 1.1670497283493415 0
          CHANNELS 3 Yrotation Xrotation Zrotation
          JOINT rightUpperArm
          {
            OFFSET -0.9737923520503168 0 0
            CHANNELS 3 Yrotation Xrotation Zrotation
            JOINT rightLowerArm
            {
              OFFSET -2.5269335630020175 0 0
              CHANNELS 3 Yrotation Xrotation Zrotation
              JOINT rightHand
              {
                OFFSET -2.4263767061081274 0 0
                CHANNELS 3 Yrotation Xrotation Zrotation
                JOINT rightIndexProximal
                {
                  OFFSET -0.7243194303238094 0.08170604153373495 0.2036005707489045
                  CHANNELS 3 Yrotation Xrotation Zrotation
                  JOINT rightIndexIntermediate
                  {
                    OFFSET -0.365490110639793 -0.010566615565509085 -0.014147873305413783
                    CHANNELS 3 Yrotation Xrotation Zrotation
                    JOINT rightIndexDistal
                    {
                      OFFSET -0.22502693978020916 -0.007863122621388996 -0.007567729919505994
                      CHANNELS 3 Yrotation Xrotation Zrotation
                      End Site
                      {
                        OFFSET -0.22502693978020916 -0.007863122621388996 -0.007567729919505994
                      }
                    }
                  }
                }
                JOINT rightLittleProximal
                {
                  OFFSET -0.6720313867214986 0.0817059792423902 -0.3230034999786495
                  CHANNELS 3 Yrotation Xrotation Zrotation
                  JOINT rightLittleIntermediate
                  {
                    OFFSET -0.3458364459000005 5.4765410650858826e-8 2.495506794542024e-7
                    CHANNELS 3 Yrotation Xrotation Zrotation
                    JOINT rightLittleDistal
                    {
                      OFFSET -0.19925722030351722 0.003096736260194355 0.0038306323169590983
                      CHANNELS 3 Yrotation Xrotation Zrotation
                      End Site
                      {
                        OFFSET -0.19925722030351722 0.003096736260194355 0.0038306323169590983
                      }
                    }
                  }
                }
                JOINT rightMiddleProximal
                {
                  OFFSET -0.7300446999180792 0.08170730820222194 0.0226618663244387
                  CHANNELS 3 Yrotation Xrotation Zrotation
                  JOINT rightMiddleIntermediate
                  {
                    OFFSET -0.40758107610000327 -0.0000012383582372876845 3.721937498757377e-7
                    CHANNELS 3 Yrotation Xrotation Zrotation
                    JOINT rightMiddleDistal
                    {
                      OFFSET -0.2514495697999991 7.561061998728746e-8 -1.6055895105115958e-7
                      CHANNELS 3 Yrotation Xrotation Zrotation
                      End Site
                      {
                        OFFSET -0.2514495697999991 7.561061998728746e-8 -1.6055895105115958e-7
                      }
                    }
                  }
                }
                JOINT rightRingProximal
                {
                  OFFSET -0.7217264995692599 0.08170598771388815 -0.1504338786787948
                  CHANNELS 3 Yrotation Xrotation Zrotation
                  JOINT rightRingIntermediate
                  {
                    OFFSET -0.3780872700000014 6.409956210262635e-8 3.723059401883333e-7
                    CHANNELS 3 Yrotation Xrotation Zrotation
                    JOINT rightRingDistal
                    {
                      OFFSET -0.21812031524459563 -0.00271347557699686 -0.004991351593452126
                      CHANNELS 3 Yrotation Xrotation Zrotation
                      End Site
                      {
                        OFFSET -0.21812031524459563 -0.00271347557699686 -0.004991351593452126
                      }
                    }
                  }
                }
                JOINT rightThumbProximal
                {
                  OFFSET -0.10793670302222891 -0.165278914300383 -0.07775358168875651
                  CHANNELS 3 Yrotation Xrotation Zrotation
                  JOINT rightThumbIntermediate
                  {
                    OFFSET -0.40355763830204994 -0.017484092948475194 0.31777731504028983
                    CHANNELS 3 Yrotation Xrotation Zrotation
                    JOINT rightThumbDistal
                    {
                      OFFSET -0.2318770514136803 -0.018507879151339335 0.21396002480314588
                      CHANNELS 3 Yrotation Xrotation Zrotation
                      End Site
                      {
                        OFFSET -0.2318770514136803 -0.018507879151339335 0.21396002480314588
                      }
                    }
                  }
                }
              }
            }
          }
        }
      }
    }
  }
  JOINT leftUpperLeg
  {
    OFFSET 0.8486251400000001 -0.44215692923454897 0
    CHANNELS 3 Yrotation Xrotation Zrotation
    JOINT leftLowerLeg
    {
      OFFSET 0 -4.1014783730019015 0
      CHANNELS 3 Yrotation Xrotation Zrotation
      JOINT leftFoot
      {
        OFFSET -0.0002543926242001143 -4.7729227580453255 0.007402839656626761
        CHANNELS 3 Yrotation Xrotation Zrotation
        JOINT leftToes
        {
          OFFSET 0 -0.7027876860119923 1.2062921852216233
          CHANNELS 3 Yrotation Xrotation Zrotation
          End Site
          {
            OFFSET 0 -0.7027876860119923 1.2062921852216233
          }
        }
      }
    }
  }
  JOINT rightUpperLeg
  {
    OFFSET -0.8486251400000001 -0.44215692923454897 0
    CHANNELS 3 Yrotation Xrotation Zrotation
    JOINT rightLowerLeg
    {
      OFFSET 0 -4.1014783730019015 0
      CHANNELS 3 Yrotation Xrotation Zrotation
      JOINT rightFoot
      {
        OFFSET 0.0002543926242001143 -4.7729227580453255 0.007402839656626761
        CHANNELS 3 Yrotation Xrotation Zrotation
        JOINT rightToes
        {
          OFFSET 0 -0.7027876860119923 1.2062921852216233
          CHANNELS 3 Yrotation Xrotation Zrotation
          End Site
          {
            OFFSET 0 -0.7027876860119923 1.2062921852216233
          }
        }
      }
    }
  }
}
MOTION
Frames: 4
Frame Time: 0.03333333333333333
-0.12949801981449127 -0.1431547248785634 0.025707703083753586 -0.05673106332156306 -0.38041215507161735 -1.2969350849930867 -0.25878954137681315 -0.08558252223806485 0.2272504254316403 -4.127504869264823 -0.8398617054741554 0.12107219805325585 0 0 0 1.6260650223529347 -1.6496107880914468 -1.360022179017995 -0.22929233147368414 9.285378611358997 2.24723022454364 0 0 0 0 0 0 12.109934539791562 -0.9992460713700175 2.4590811844439378 -18.582910169965576 5.879502082766194 -65.32590621611449 -31.10889995639296 -3.627254618409335 1.421364560361172 9.91287609561968 12.97318901821325 -11.129648503415176 0.5269504537824665 -0.4771710691539959 -20.8016014367364 3.1620820419016096 0.872347524110371 -30.841182609220542 1.3326510283930006 0.14574573523540038 -12.483025061971786 5.89429077293207 2.8678033461223427 -42.506387218977885 -2.3416365002243706 0.24253810040583915 -16.664459716352283 0.8219089165234659 0.05503213994013207 -7.661484242501463 1.6809332663950982 -0.09911065663683322 -27.30857130586387 2.029770610483758 0.3436602005484528 -19.21906561085693 1.591246193835667 0.20888404266180463 -14.956291884230602 1.4168770596630544 -0.6940422062141255 -33.758346950494456 1.507551085630709 0.1871440875839118 -14.153023665795695 1.183214297044669 0.11458170238476657 -11.06472901420331 14.535351574382076 -11.06343280915726 4.223549047364417 12.66838940685056 9.119909936949293 4.272743138567383 2.036639138409356 -0.4342775640997356 2.8592549321624414 -2.628123597327485 -0.06363300357625563 -7.0459823656215255 22.256500919676892 1.7113627302687033 72.08036633068676 27.076319947268342 -3.2092888237427735 -1.1288816614355217 -12.622008987839461 2.24598982415163 0.08133687149291911 -4.380805200664212 1.0592967547255334 8.654049680867256 -3.7248024908854864 1.2347896244789303 36.67081861807963 -1.045663181353167 0.08835540881295986 9.657840265341978 -6.170943516405316 3.6143342843884296 36.92219866767553 -1.6026005543254043 0.20956872033027615 14.89804547057716 -0.778976476119254 0.04886432650411966 7.179738744153496 -6.165813782754707 2.257367245270404 17.134547894043468 -2.7051322435396754 0.6175196996519661 25.713570099677604 -1.1007248697850534 -1.7648411445397085 6.182257534905656 -4.12936968287917 1.5691223915756467 27.3419055478623 -1.8849417292605029 0.2918286979998461 17.600728292111107 -1.4821395819116299 -1.9895021880236161 8.376928539535394 -21.969853172039063 7.051678337288586 -8.461957912904959 0.93680515105071 5.114878640393077 -0.11005435751239613 0.616388243187831 -1.9535113992910722 -2.9822140929056955 3.0077579695440946 -9.061779708507908 3.086076995140512 10.00764264453239 17.654477692108294 3.969561980593367 3.049865899844675 -7.891389731136278 -4.639173174196605 -0.0000016121487343815646 -0.04977647392633263 0.000002582332250272382 -12.870055867753718 -9.114302371921019 -2.597016828309243 -5.267474441940611 13.772800333595766 -2.123743708390867 -4.2373423282772675 -3.257574236819609 5.492662527957319 0.000024421474170530926 -0.11423904498477913 -0.0000011692919577051637
-0.09955663979053497 -0.14506970290590715 0.02152828313410282 -0.237629931252216 -0.43390381395941713 -1.3792690669532053 -0.24719295259303187 -0.05524408934595747 0.22706268773984847 -4.096565196476118 -0.7451994505060661 0.08171428394906534 0 0 0 1.583344724280085 -1.6315831179323392 -1.300555596098138 -0.25156955037439266 9.356114504185642 2.321709685247071 0 0 0 0 0 0 12.096515830453283 -0.9863809727890446 2.372853642633306 -18.814902253943018 5.781587211347663 -65.18720429356961 -31.001897837762588 -3.6164113805441143 1.4131901647599163 10.01981879309203 12.896961001623007 -11.185680528868751 0.595265242712039 -0.44717214213462964 -20.920175485291153 3.166979290838363 0.8752954137280495 -30.89430328674138 1.3429290611409996 0.14800766920102326 -12.580902322983448 5.871331657245462 2.8489712824791353 -42.7611965678322 -2.3261754593673247 0.24718920822178844 -16.814480184251398 0.8219859617016608 0.05504130133578935 -7.6621175470635 1.713165760099623 -0.08213031815208018 -27.421244729365068 2.038288278910437 0.34664982325847854 -19.302895756898078 1.5871361679207634 0.20777132812155605 -14.916981408983329 1.4082362229410428 -0.7068775177408759 -33.827642299540855 1.5149188657692447 0.1890081122799182 -14.223646127655352 1.1812811289700458 0.114205374219697 -11.04643662556618 14.547503792041338 -11.059735582327454 4.226223924364469 12.659466939379476 9.095077349790701 4.262670928852955 2.0224195995522107 -0.44327276012414984 2.8575008973908433 -2.5100355023958367 -0.03789716730084946 -6.935456311929888 22.13099286355013 1.5865022076367619 72.02569542254952 27.039038530723854 -3.205311265353474 -1.126369570481069 -12.583873944381335 2.1794124290536736 0.07233971922634548 -4.449985272033232 1.078378607573041 8.63306936676557 -3.7377390500854237 1.24444806485988 36.81888458378837 -1.0418921249989805 0.08770369193707976 9.622754659519265 -6.273666808993424 3.745047166095288 37.37466685236689 -1.6031713579253528 0.209711194761189 14.90339434606785 -0.7600636485223539 0.04651968650126959 7.004591603452285 -6.272774543902024 2.340165830881407 17.561771575870978 -2.6962935015668017 0.6132533067426367 25.62344526718806 -1.0961890958278286 -1.8176463827752172 6.0641927279750165 -4.239452552819149 1.6513832104746482 27.680640530219954 -1.8679332989586233 0.286475815915939 17.436797109906404 -1.4853139458141862 -2.049062567260899 8.288340149487274 -22.08561251180295 7.210667683743978 -8.580584538155776 1.0286019029987687 4.882705149561588 -0.03322014742856464 0.7032515877683978 -2.0068441246160327 -2.9748013861484464 2.894626393408137 -9.13260661993624 3.0100271186386416 10.008638283360378 17.93563559521936 3.953209154178959 3.334210133100733 -8.068155734418838 -4.491915698204332 0.000010791955580400251 -0.061785983248154694 2.875088035766161e-7 -12.992338200622811 -9.086833924195624 -2.670599076468589 -5.159577226104757 13.651616133217491 -2.1261301501871666 -4.064045614596833 -3.0870535446207934 5.6262786284465385 0.0000015669488748377832 -0.21640749449205102 -8.740501581525254e-7
-0.08943277597427368 -0.14591179732729387 0.01999538205564022 -0.299150867182968 -0.45478198233368755 -1.404589817691228 -0.24231616222082744 -0.04304203525870104 0.22587593705384063 -4.086157224647676 -0.7069301889114653 0.06682644816444228 0 0 0 1.5679610583549721 -1.628039697754707 -1.2798755007420475 -0.26141117917220585 9.372306085880666 2.3505337860063564 0 0 0 0 0 0 12.08068516608265 -0.9805429690984414 2.34151125038549 -18.92449292977957 5.744001115633736 -65.1402621685687 -30.959956679991 -3.6121669405669405 1.4100018525258577 10.060428173934389 12.85114234436569 -11.205027536133539 0.6127726478538046 -0.4396917403826864 -20.95577001273862 3.1691301738619226 0.8765738223517655 -30.917515471298657 1.346810864192456 0.14889571683584066 -12.617862797686607 5.864302289404781 2.8432349587081935 -42.844693333590385 -2.320757496745163 0.24882838893761455 -16.867026296397707 0.821994178431016 0.055032907002746205 -7.6622259834635535 1.7206603852945488 -0.07848565492708061 -27.454897532238757 2.04158972810385 0.3478154324537254 -19.33550828185819 1.5859077572462381 0.20742729510448402 -14.905028633471531 1.404385623624095 -0.7118169768299653 -33.84825088496941 1.5176260633298373 0.18967867509931624 -14.249706685826816 1.1806931479699145 0.11410469543067907 -11.040879417099429 14.54797434501485 -11.059999171308029 4.22721697546205 12.658394201890397 9.09213238279692 4.261239177474752 2.02195472668271 -0.44331982580508844 2.856729642087687 -2.458689119809376 -0.02670778818988417 -6.893286784067277 22.097349636774442 1.532788054850686 71.99854053435972 27.02082022518962 -3.203366530111089 -1.125104088279501 -12.579294999118877 2.1478955300681153 0.0712119892616912 -4.47204432757942 1.0850664479242118 8.638284768032188 -3.742001034890393 1.247630084631298 36.867637683522005 -1.0401545286904241 0.08741676362592773 9.606511621387593 -6.299461466790931 3.776985186249637 37.46669878363285 -1.6082631624376467 0.21105232211779656 14.951837698116226 -0.756488310575552 0.04608088005435504 6.971395563483345 -6.300871999213472 2.360117373255992 17.6469099117229 -2.698165801669026 0.6141658296738808 25.64253052697412 -1.093861198094525 -1.8250880050225287 6.036170336611021 -4.267411764837084 1.6722257611769749 27.747307837515425 -1.8692352220520516 0.2868765876181143 17.44937399594563 -1.4850457435167241 -2.057851834740202 8.270478367578622 -22.121653988256423 7.266076922475578 -8.610387855899116 1.057233554136161 4.809917704671886 -0.009553907232895802 0.7308850658976642 -2.0239431948895197 -2.97267099987439 2.8650593109027453 -9.159161038271058 2.980522382956641 10.009840252136307 18.03861526424966 3.9519786804372337 3.421958272317235 -8.13166461635767 -4.443263072429766 -0.000010781784141555321 -0.06657436240844124 5.661902987319468e-7 -13.034882192122465 -9.08550154019941 -2.698638810450904 -5.121744683670312 13.628377559953009 -2.1283357692121228 -4.003900954796038 -3.037443128152002 5.672762627259813 0.000029156199914321554 -0.23846102852278012 -3.766182053743275e-7
-0.05869486555457115 -0.1490598762457509 0.014996511861681938 -0.483982446929052 -0.5216070340138657 -1.4779694818955558 -0.22604735697362596 -0.003378733542977048 0.22025972287583379 -4.054788523321993 -0.5822520052922119 0.018716830484798403 0 0 0 1.5196705420474768 -1.6209849054001875 -1.2155314256968315 -0.29526443682866765 9.410478533132206 2.447000840048997 0 0 0 0 0 0 12.011838143702617 -0.9610023014458213 2.248476486558649 -19.30411673680569 5.624204774329515 -65.00164513579165 -30.825449132289037 -3.5985521873229223 1.3998501409550135 10.188383832695765 12.682497742966133 -11.261825820840015 0.6546708200249527 -0.42215865575358547 -21.049819872325056 3.1768762601152254 0.881229944484383 -31.001426321027488 1.3594860467999696 0.15174332855087205 -12.73856109258792 5.84796133494469 2.8310939296147666 -43.08240668164583 -2.304156269580001 0.2538856323960519 -17.028167187395223 0.8220154138742575 0.055027267425005126 -7.662401785671584 1.737941330449333 -0.07052910480023143 -27.542347196631507 2.0526460239516937 0.35168224534088843 -19.444198222235617 1.582617707571254 0.20656385750906603 -14.873534406885812 1.3937306156377351 -0.7251624015120725 -33.90046608140881 1.5263787401995819 0.19193111589088124 -14.33353513398545 1.1791280901014358 0.11380512701005244 -11.026076796916021 14.542931570186903 -11.063457167512212 4.230252426927359 12.658846835471275 9.09378384398169 4.260916320273115 2.0284301845613664 -0.43823451944536823 2.8544012572806725 -2.279937996603845 0.012442685442387394 -6.754377283620096 22.008601739637363 1.3619991540058634 71.89750521123193 26.963068269860084 -3.197258071680343 -1.1211014418227152 -12.578359242995509 2.034277134095921 0.07078608475453887 -4.5340419677859884 1.104837799676292 8.670581352451688 -3.75477110315869 1.2572453393940826 37.014424562135545 -1.034384922509881 0.0864254645808289 9.552667003196147 -6.361430929112689 3.8515353533283396 37.647500465099746 -1.6238850689707924 0.21525447834234337 15.100602484349904 -0.7504814526230704 0.04534870555362451 6.915764727374152 -6.370661487406498 2.4060557621695273 17.807356720055676 -2.7117963977022193 0.6207421896141567 25.781411427230932 -1.0860708263752599 -1.8306621412947637 5.97337132339304 -4.335114525286186 1.722296367920147 27.87213406323391 -1.8846067774291406 0.29174195880869613 17.597470217341932 -1.4822600637336336 -2.066019839777376 8.23739802835463 -22.220262192168775 7.426894848960651 -8.68015638606358 1.1352429049246688 4.611038902102077 0.05455102795937471 0.8071799630614169 -2.071281447245398 -2.9672590835271273 2.791156633386245 -9.254410797609555 2.884302001834445 10.014893903862808 18.37796928754169 3.959462985864272 3.672148923091227 -8.335862079562503 -4.299372480294424 -0.000012444946406038505 -0.08067069724922603 -0.0000011199852741703589 -13.160951872936737 -9.103876944901884 -2.7885386838305486 -5.007225916623014 13.601383411001871 -2.138356681164986 -3.8219776341965934 -2.9061403357262994 5.817166484371689 0.000007613019774867069 -0.28782049961552714 -9.521380972815274e-7
